{"title":"Powder.Blue.2009.DVDRIP.XviD-ZEKTORM","uid":4891909,"size":735065740,"categoryP":"video","categoryS":"movies","magnet":"?xt=urn:btih:e0fba11f4c26206abd7b553c075e4ffa051835ff&amp;dn=Powder.Blue.2009.DVDRIP.XviD-ZEKTORM&amp;tr=udp%3A%2F%2Ftracker.openbittorrent.com%3A80&amp;tr=udp%3A%2F%2Fopen.demonii.com%3A1337&amp;tr=udp%3A%2F%2Ftracker.coppersurfer.tk%3A6969&amp;tr=udp%3A%2F%2Fexodus.desync.com%3A6969","seeders":0,"leechers":0,"uploader":"blowley","files":2,"time":1242048758,"description":"Title                            : Powder Blue\nYear                             : 2009\nGenre                            : Drama\niMDB URL                         : http://www.imdb.com/title/tt1032819/\n\nComplete name                    : Powder.Blue.2009.DVDRIP.XviD-ZEKTORM.avi\nFormat                           : AVI\nFile size                        : 701 MiB\nDuration                         : 1h 46mn\nOverall bit rate                 : 923 Kbps\nSource                           : DVD NTSC\n\nVideo\nFormat                           : MPEG-4 Visual\nFormat profile                   : Streaming Video@L1\nCodec ID                         : DX50\nCodec ID/Hint                    : DivX 5\nDuration                         : 1h 46mn\nBit rate                         : 788 Kbps\nWidth                            : 720 pixels\nHeight                           : 304 pixels\nDisplay aspect ratio             : 2.35\nFrame rate                       : 23.976 fps\nResolution                       : 24 bits\nColorimetry                      : 4:2:0\nScan type                        : Progressive\nBits/(Pixel*Frame)               : 0.150\nStream size                      : 598 MiB (85%)\nWriting library                  : XviD\n\nAudio\nFormat                           : MPEG Audio\nFormat version                   : Version 1\nFormat profile                   : Layer 3\nCodec ID                         : 55\nCodec ID/Hint                    : MP3\nDuration                         : 1h 46mn\nBit rate mode                    : Constant\nBit rate                         : 128 Kbps\nMinimum bit rate                 : 128 Kbps\nChannel(s)                       : 2 channels\nSampling rate                    : 48.0 KHz\nResolution                       : 16 bits\nStream size                      : 97.2 MiB (14%)\nWriting library                  : LAME3.98r\nEncoding settings                : CBR\n","torrent":{"xt":"urn:btih:e0fba11f4c26206abd7b553c075e4ffa051835ff","amp;dn":"Powder.Blue.2009.DVDRIP.XviD-ZEKTORM","amp;tr":["udp%3A%2F%2Ftracker.openbittorrent.com%3A80","udp%3A%2F%2Fopen.demonii.com%3A1337","udp%3A%2F%2Ftracker.coppersurfer.tk%3A6969","udp%3A%2F%2Fexodus.desync.com%3A6969"],"infoHash":"e0fba11f4c26206abd7b553c075e4ffa051835ff","infoHashBuffer":{"type":"Buffer","data":[224,251,161,31,76,38,32,106,189,123,85,60,7,94,79,250,5,24,53,255]},"announce":[],"urlList":[]}}